<?xml version="1.0" encoding="utf-8"?>
<!-- Generator: Adobe Illustrator 15.0.0, SVG Export Plug-In . SVG Version: 6.00 Build 0)  -->
<!DOCTYPE svg PUBLIC "-//W3C//DTD SVG 1.1//EN" "http://www.w3.org/Graphics/SVG/1.1/DTD/svg11.dtd">
<svg version="1.1" id="Layer_1" xmlns="http://www.w3.org/2000/svg" xmlns:xlink="http://www.w3.org/1999/xlink" x="0px" y="0px"
	 width="225.469px" height="66.223px" viewBox="0 0 225.469 66.223" enable-background="new 0 0 225.469 66.223"
	 xml:space="preserve">
<g>
	<path d="M-0.002,0H7.37v18.342h0.145c1.518-2.311,3.541-3.971,6.938-3.971c3.686,0,7.589,2.382,7.589,8.954v28.093H14.67V26.069
		c0-2.672-1.301-4.332-3.615-4.332c-2.746,0-3.686,1.804-3.686,5.054v24.626h-7.372V0z"/>
	<path d="M42.058,47.662h-0.144c-1.952,2.672-3.542,4.189-7.083,4.189c-3.396,0-7.95-1.662-7.95-9.75
		c0-8.378,2.384-12.422,11.636-12.422c1.012,0,2.024,0.145,3.541,0.217v-3.828c0-2.455-0.939-4.332-3.685-4.332
		c-1.879,0-3.758,1.299-4.192,3.682h-7.156c0.217-3.25,1.374-5.993,3.325-7.943c1.951-1.95,4.697-3.105,8.022-3.105
		c6.143,0,11.057,3.899,11.057,11.555v25.492h-7.373L42.058,47.662L42.058,47.662z M42.058,35.674
		c-0.794-0.143-1.372-0.217-2.023-0.217c-3.18,0-5.782,1.301-5.782,5.199c0,2.818,1.445,4.695,3.83,4.695
		c2.458,0,3.975-1.734,3.975-4.695V35.674z"/>
	<path d="M54.848,14.805h7.372v3.321c1.879-2.095,3.324-3.755,7.011-3.755c2.963,0,5.131,1.082,6.433,3.466
		c0.867,1.589,1.228,3.827,1.228,7.872v13.938c0,5.271-0.216,7.365-1.157,8.883c-1.228,1.949-3.036,3.322-6.576,3.322
		c-2.892,0-5.204-1.373-6.793-3.756h-0.145v18.127h-7.372L54.848,14.805L54.848,14.805z M69.52,26.72
		c0-2.961-1.084-4.982-3.614-4.982c-2.24,0-3.686,1.877-3.686,4.549v14.227c0,2.311,1.59,3.973,3.686,3.973
		c2.818,0,3.614-2.023,3.614-4.334V26.72z"/>
	<path d="M82.959,14.805h7.372v3.321c1.879-2.095,3.323-3.755,7.011-3.755c2.963,0,5.132,1.082,6.432,3.466
		c0.868,1.589,1.229,3.827,1.229,7.872v13.938c0,5.271-0.217,7.365-1.157,8.883c-1.229,1.949-3.036,3.322-6.578,3.322
		c-2.89,0-5.202-1.373-6.793-3.756h-0.144v18.127h-7.372V14.805L82.959,14.805z M97.631,26.72c0-2.961-1.085-4.982-3.614-4.982
		c-2.241,0-3.686,1.877-3.686,4.549v14.227c0,2.311,1.589,3.973,3.686,3.973c2.818,0,3.614-2.023,3.614-4.334V26.72z"/>
	<path d="M111.069,0h7.375v7.366h-7.375V0z M111.069,14.805h7.375v36.613h-7.375V14.805z"/>
	<path d="M124.512,14.805h7.371v3.539h0.145c1.519-2.312,3.542-3.972,6.938-3.972c3.686,0,7.588,2.382,7.588,8.955v28.092h-7.37
		V26.069c0-2.672-1.301-4.332-3.616-4.332c-2.745,0-3.685,1.804-3.685,5.054v24.626h-7.373V14.805H124.512z"/>
	<path d="M159.345,35.893v4.98c0,2.311,1.374,3.611,3.614,3.611c2.818,0,3.469-2.094,3.612-3.682h7.374
		c0,3.031-1.084,5.85-2.964,7.799c-1.951,2.021-4.624,3.25-8.022,3.25c-4.48,0-7.877-2.096-9.612-5.273
		c-1.011-1.877-1.374-4.477-1.374-7.436V27.081c0-2.96,0.363-5.56,1.374-7.438c1.735-3.177,5.132-5.271,9.612-5.271
		c6.795,0,10.986,4.982,10.986,11.41v10.111H159.345L159.345,35.893z M159.345,30.114h7.227v-4.188c0-2.744-1.371-4.188-3.613-4.188
		c-2.239,0-3.614,1.444-3.614,4.188L159.345,30.114L159.345,30.114z"/>
	<path d="M192.732,25.059c-0.071-2.456-1.805-3.755-3.758-3.755c-2.313,0-3.613,1.805-3.613,3.683c0,1.372,0.36,2.672,3.107,3.755
		l4.336,1.733c5.493,2.095,7.227,5.994,7.227,10.328c0,6.064-4.625,11.049-10.986,11.049c-5.78,0-10.694-3.828-10.984-11.049H185
		c0.287,2.021,1.227,4.115,3.974,4.115c2.096,0,4.119-1.516,4.119-3.971c0-2.021-0.868-3.395-3.687-4.477l-3.539-1.301
		c-4.627-1.734-7.445-5.2-7.445-10.111c0-6.211,4.915-10.688,10.841-10.688c5.999,0,10.336,4.622,10.407,10.688H192.732z"/>
	<path d="M218.17,25.059c-0.071-2.456-1.805-3.755-3.758-3.755c-2.313,0-3.612,1.805-3.612,3.683c0,1.372,0.359,2.672,3.106,3.755
		l4.336,1.733c5.494,2.095,7.227,5.994,7.227,10.328c0,6.064-4.624,11.049-10.984,11.049c-5.782,0-10.696-3.828-10.984-11.049h6.936
		c0.29,2.021,1.229,4.115,3.976,4.115c2.096,0,4.119-1.516,4.119-3.971c0-2.021-0.868-3.395-3.687-4.477l-3.539-1.301
		c-4.627-1.734-7.445-5.2-7.445-10.111c0-6.211,4.915-10.688,10.841-10.688c5.999,0,10.336,4.622,10.407,10.688H218.17z"/>
</g>
</svg>
